<svg width="72" height="73" viewBox="0 0 72 73" fill="none" xmlns="http://www.w3.org/2000/svg">
<g clip-path="url(#clip0_612_8118)">
<g filter="url(#filter0_f_612_8118)">
<path d="M22.4068 57.5717L23.3252 58.1222C27.1826 60.4388 31.6053 61.6643 36.1156 61.6664H36.125C49.976 61.6664 61.2484 50.2618 61.2541 36.2445C61.2566 29.4519 58.6452 23.0643 53.9007 18.2594C51.5736 15.8898 48.8052 14.0107 45.7557 12.7311C42.7062 11.4514 39.4362 10.7965 36.1349 10.8044C22.2733 10.8044 11.0005 22.2077 10.9955 36.2242C10.9887 41.0104 12.3206 45.7008 14.8372 49.7532L15.4351 50.7146L12.8961 60.095L22.4068 57.5717ZM5.63672 67.362L9.92633 51.513C7.28082 46.8748 5.88902 41.6129 5.89067 36.2221C5.89765 19.3576 19.4597 5.6377 36.1254 5.6377C44.2128 5.64185 51.8037 8.82671 57.5127 14.608C63.2216 20.3893 66.3627 28.0739 66.3598 36.2466C66.3524 53.1098 52.7883 66.8322 36.125 66.8322H36.1119C31.0522 66.8302 26.0805 65.5457 21.6643 63.1089L5.63672 67.362Z" fill="#B3B3B3"/>
</g>
<path d="M5.32812 67.0476L9.61773 51.1986C6.96767 46.5492 5.57567 41.275 5.58207 35.9076C5.58906 19.0432 19.1511 5.32324 35.8168 5.32324C43.9042 5.3274 51.4951 8.51225 57.2041 14.2936C62.913 20.0749 66.0541 27.7594 66.0512 35.9322C66.0438 52.7954 52.4797 66.5178 35.8164 66.5178H35.8033C30.7436 66.5157 25.7719 65.2312 21.3557 62.7944L5.32812 67.0476Z" fill="white"/>
<path d="M35.8269 10.4903C21.9653 10.4903 10.6925 21.8936 10.6875 35.9101C10.6807 40.6963 12.0126 45.3867 14.5292 49.4391L15.1271 50.401L12.588 59.7813L22.0992 57.2576L23.0176 57.8082C26.875 60.1248 31.2977 61.3498 35.808 61.3523H35.8174C49.6684 61.3523 60.9412 49.9477 60.9465 35.9304C60.957 32.5895 60.3124 29.2796 59.0502 26.1924C57.788 23.1053 55.9331 20.3021 53.5931 17.9453C51.266 15.5756 48.4975 13.6965 45.4479 12.4169C42.3984 11.1372 39.1282 10.4824 35.8269 10.4903Z" fill="url(#paint0_linear_612_8118)"/>
<path fill-rule="evenodd" clip-rule="evenodd" d="M28.2598 23.1218C27.6936 21.8489 27.0977 21.8231 26.5598 21.8011L25.1117 21.7832C24.608 21.7832 23.7894 21.9745 23.0974 22.7396C22.4054 23.5047 20.4531 25.3539 20.4531 29.1151C20.4531 32.8763 23.1603 36.5107 23.5375 37.0213C23.9147 37.532 28.7636 45.4964 36.4425 48.5607C42.8237 51.1072 44.1222 50.6007 45.5078 50.4735C46.8935 50.3462 49.9774 48.6243 50.6065 46.8391C51.2357 45.0539 51.2361 43.5245 51.0475 43.2047C50.8588 42.885 50.3551 42.6949 49.599 42.3124C48.8429 41.9298 45.1294 40.0806 44.437 39.8253C43.7446 39.57 43.2412 39.4431 42.737 40.2083C42.2328 40.9734 40.7867 42.6945 40.3458 43.2047C39.9049 43.715 39.4648 43.779 38.7087 43.3969C37.9526 43.0147 35.52 42.2072 32.6337 39.6028C30.388 37.5765 28.8721 35.074 28.4308 34.3093C27.9894 33.5446 28.3839 33.1304 28.7628 32.7495C29.1018 32.4069 29.518 31.8567 29.8965 31.4105C30.275 30.9643 30.3995 30.6454 30.651 30.136C30.9024 29.6266 30.7771 29.1792 30.5881 28.797C30.3991 28.4149 28.9313 24.6337 28.2598 23.1218Z" fill="white"/>
</g>
<defs>
<filter id="filter0_f_612_8118" x="-1.42528" y="-1.4243" width="74.8467" height="75.8486" filterUnits="userSpaceOnUse" color-interpolation-filters="sRGB">
<feFlood flood-opacity="0" result="BackgroundImageFix"/>
<feBlend mode="normal" in="SourceGraphic" in2="BackgroundImageFix" result="shape"/>
<feGaussianBlur stdDeviation="3.531" result="effect1_foregroundBlur_612_8118"/>
</filter>
<linearGradient id="paint0_linear_612_8118" x1="35.3054" y1="13.5425" x2="35.5663" y2="57.0072" gradientUnits="userSpaceOnUse">
<stop stop-color="#57D163"/>
<stop offset="1" stop-color="#23B33A"/>
</linearGradient>
<clipPath id="clip0_612_8118">
<rect width="72" height="73" fill="white"/>
</clipPath>
</defs>
</svg>
